<?xml version="1.0" encoding="UTF-8"?><!DOCTYPE svg PUBLIC "-//W3C//DTD SVG 1.1//EN" "http://www.w3.org/Graphics/SVG/1.1/DTD/svg11.dtd"><svg xmlns="http://www.w3.org/2000/svg" xmlns:xlink="http://www.w3.org/1999/xlink" version="1.1" width="500" height="500" viewBox="0 0 500 500">
<path style="fill: rgb(187, 96, 96);" d="M 374.342 494.58 C 374.342 494.58 272.57 458.306 178.495 463.8 C 92.523 468.82 0 500 0 500 C 0 500 111.281 320.943 151.641 233.277 C 188.3 153.659 232.537 0 232.537 0 L 374.342 494.58 Z"/>
<path style="fill: rgb(222, 181, 128);" d="M 470.435 493.024 C 469.412 493.914 327.616 414.454 273.52 438.4 C 224.582 460.063 298.804 309.095 319.723 269.199 C 346.572 218.002 331.477 93.451 331.477 93.451 C 331.477 93.451 584.56 555.911 470.435 493.024 Z"/>
<path style="fill: rgb(163, 188, 221);" d="M 313.369 281.621 C 313.369 281.621 20.324 187.078 92.393 215.467 C 164.461 243.857 374.492 494.818 374.492 494.818 L 313.369 281.621 Z"/>
</svg>